<?xml version="1.0" encoding="UTF-8" standalone="no"?>
<svg
   xmlns:dc="http://purl.org/dc/elements/1.1/"
   xmlns:cc="http://creativecommons.org/ns#"
   xmlns:rdf="http://www.w3.org/1999/02/22-rdf-syntax-ns#"
   xmlns:svg="http://www.w3.org/2000/svg"
   xmlns="http://www.w3.org/2000/svg"
   xmlns:sodipodi="http://sodipodi.sourceforge.net/DTD/sodipodi-0.dtd"
   xmlns:inkscape="http://www.inkscape.org/namespaces/inkscape"
   width="128"
   height="128"
   viewBox="0 0 33.866666 33.866666"
   version="1.1"
   id="svg8"
   inkscape:version="1.0.2 (e86c870879, 2021-01-15)"
   sodipodi:docname="round-triangle-with-sub-dropshadow.svg">
  <defs
     id="defs2">
    <marker
       style="overflow:visible"
       id="TriangleInS"
       refX="0.0"
       refY="0.0"
       orient="auto"
       inkscape:stockid="TriangleInS"
       inkscape:isstock="true">
      <path
         transform="scale(-0.2)"
         style="fill-rule:evenodd;stroke:#ffffff;stroke-width:1pt;stroke-opacity:1;fill:#ffffff;fill-opacity:1"
         d="M 5.77,0.0 L -2.88,5.0 L -2.88,-5.0 L 5.77,0.0 z "
         id="path2183" />
    </marker>
    <marker
       style="overflow:visible"
       id="Tail"
       refX="0.0"
       refY="0.0"
       orient="auto"
       inkscape:stockid="Tail"
       inkscape:isstock="true">
      <g
         transform="scale(-1.2)"
         id="g2092"
         style="stroke:#ffffff;stroke-opacity:1;fill:#ffffff;fill-opacity:1">
        <path
           style="fill:#ffffff;fill-rule:evenodd;stroke:#ffffff;stroke-width:0.8;stroke-linecap:round;stroke-opacity:1;fill-opacity:1"
           d="M -3.8048674,-3.9585227 L 0.54352094,0"
           id="path2080" />
        <path
           style="fill:#ffffff;fill-rule:evenodd;stroke:#ffffff;stroke-width:0.8;stroke-linecap:round;stroke-opacity:1;fill-opacity:1"
           d="M -1.2866832,-3.9585227 L 3.0617053,0"
           id="path2082" />
        <path
           style="fill:#ffffff;fill-rule:evenodd;stroke:#ffffff;stroke-width:0.8;stroke-linecap:round;stroke-opacity:1;fill-opacity:1"
           d="M 1.3053582,-3.9585227 L 5.6537466,0"
           id="path2084" />
        <path
           style="fill:#ffffff;fill-rule:evenodd;stroke:#ffffff;stroke-width:0.8;stroke-linecap:round;stroke-opacity:1;fill-opacity:1"
           d="M -3.8048674,4.1775838 L 0.54352094,0.21974226"
           id="path2086" />
        <path
           style="fill:#ffffff;fill-rule:evenodd;stroke:#ffffff;stroke-width:0.8;stroke-linecap:round;stroke-opacity:1;fill-opacity:1"
           d="M -1.2866832,4.1775838 L 3.0617053,0.21974226"
           id="path2088" />
        <path
           style="fill:#ffffff;fill-rule:evenodd;stroke:#ffffff;stroke-width:0.8;stroke-linecap:round;stroke-opacity:1;fill-opacity:1"
           d="M 1.3053582,4.1775838 L 5.6537466,0.21974226"
           id="path2090" />
      </g>
    </marker>
    <marker
       style="overflow:visible"
       id="DotS"
       refX="0.0"
       refY="0.0"
       orient="auto"
       inkscape:stockid="DotS"
       inkscape:isstock="true">
      <path
         transform="scale(0.2) translate(7.4, 1)"
         style="fill-rule:evenodd;stroke:#ffffff;stroke-width:1pt;stroke-opacity:1;fill:#ffffff;fill-opacity:1"
         d="M -2.5,-1.0 C -2.5,1.7600000 -4.7400000,4.0 -7.5,4.0 C -10.260000,4.0 -12.5,1.7600000 -12.5,-1.0 C -12.5,-3.7600000 -10.260000,-6.0 -7.5,-6.0 C -4.7400000,-6.0 -2.5,-3.7600000 -2.5,-1.0 z "
         id="path2111" />
    </marker>
    <marker
       style="overflow:visible"
       id="DotL"
       refX="0.0"
       refY="0.0"
       orient="auto"
       inkscape:stockid="DotL"
       inkscape:isstock="true">
      <path
         transform="scale(0.8) translate(7.4, 1)"
         style="fill-rule:evenodd;stroke:#ffffff;stroke-width:1pt;stroke-opacity:1;fill:#ffffff;fill-opacity:1"
         d="M -2.5,-1.0 C -2.5,1.7600000 -4.7400000,4.0 -7.5,4.0 C -10.260000,4.0 -12.5,1.7600000 -12.5,-1.0 C -12.5,-3.7600000 -10.260000,-6.0 -7.5,-6.0 C -4.7400000,-6.0 -2.5,-3.7600000 -2.5,-1.0 z "
         id="path2105" />
    </marker>
  </defs>
  <sodipodi:namedview
     id="base"
     pagecolor="#36383f"
     bordercolor="#666666"
     borderopacity="1.0"
     inkscape:pageopacity="0.63921569"
     inkscape:pageshadow="2"
     inkscape:zoom="3.959798"
     inkscape:cx="35.265905"
     inkscape:cy="71.948427"
     inkscape:document-units="px"
     inkscape:current-layer="layer1"
     inkscape:document-rotation="0"
     showgrid="true"
     units="px"
     inkscape:pagecheckerboard="false"
     objecttolerance="5"
     guidetolerance="5"
     gridtolerance="10"
     guidecolor="#202225"
     guideopacity="0.50588235"
     guidehicolor="#00c282"
     guidehiopacity="0.49803922"
     inkscape:window-width="1920"
     inkscape:window-height="1014"
     inkscape:window-x="0"
     inkscape:window-y="38"
     inkscape:window-maximized="1">
    <inkscape:grid
       type="xygrid"
       id="grid833"
       color="#4a4d57"
       opacity="0.19215686"
       empcolor="#565a65"
       empopacity="0.25098039"
       dotted="false"
       empspacing="8"
       spacingx="0.13229166"
       spacingy="0.13229166" />
    <sodipodi:guide
       position="0,33.866666"
       orientation="0,128"
       id="guide843" />
    <sodipodi:guide
       position="33.866666,33.866666"
       orientation="128,0"
       id="guide845" />
    <sodipodi:guide
       position="33.866666,0"
       orientation="0,-128"
       id="guide847" />
    <sodipodi:guide
       position="0,0"
       orientation="-128,0"
       id="guide849" />
  </sodipodi:namedview>
  <metadata
     id="metadata5">
    <rdf:RDF>
      <cc:Work
         rdf:about="">
        <dc:format>image/svg+xml</dc:format>
        <dc:type
           rdf:resource="http://purl.org/dc/dcmitype/StillImage" />
        <dc:title></dc:title>
        <dc:creator>
          <cc:Agent>
            <dc:title />
          </cc:Agent>
        </dc:creator>
        <dc:publisher>
          <cc:Agent>
            <dc:title>Spiffily Software</dc:title>
          </cc:Agent>
        </dc:publisher>
        <dc:source>https://github.com/Spiffily/virgo-icons</dc:source>
      </cc:Work>
    </rdf:RDF>
  </metadata>
  <g
     inkscape:label="Layer 1"
     inkscape:groupmode="layer"
     id="layer1">
    <path
       id="path899-7"
       style="opacity:0.5;fill:#7f7f7f;fill-opacity:1;fill-rule:evenodd;stroke-width:0.661458;stroke-miterlimit:4.4"
       inkscape:transform-center-y="2.3812498"
       d="m 17.991666,11.641666 c -1.593813,0 -7.452203,0.143655 -8.2491102,1.523939 -0.796907,1.380283 2.0080912,6.525695 2.8049982,7.905978 0.796907,1.380282 3.850299,6.381522 5.444112,6.381522 1.593814,0 4.647205,-5.00124 5.444112,-6.381522 0.796907,-1.380283 3.601903,-6.525695 2.804996,-7.905978 -0.796906,-1.380284 -6.655294,-1.523939 -8.249108,-1.523939 z"
       sodipodi:nodetypes="sssssss" />
    <circle
       style="opacity:0.5;fill:#650000;fill-opacity:1;fill-rule:evenodd;stroke-width:0.705644"
       id="path2021"
       cx="18.042295"
       cy="17.972044"
       r="12.170834" />
    <path
       id="path2021-3"
       style="fill:none;fill-rule:evenodd;stroke:#ffffff;stroke-width:0.661458;stroke-linecap:round;stroke-miterlimit:4;stroke-dasharray:none;stroke-opacity:1;paint-order:normal"
       d="m 21.039714,27.643617 c -1.4561,0.615877 -3.056998,0.956444 -4.737439,0.956444 -6.7217647,0 -12.1708326,-5.449068 -12.1708326,-12.170833 0,-6.7217664 5.4490669,-12.1708334 12.1708326,-12.1708344 6.721767,0 12.170835,5.449068 12.170835,12.1708344 0,1.680441 -0.340567,3.281339 -0.956445,4.737438"
       sodipodi:nodetypes="cssssc" />
    <path
       id="path899"
       style="opacity:1;fill:#ffffff;fill-opacity:1;fill-rule:evenodd;stroke-width:0.661458;stroke-miterlimit:4.4"
       inkscape:transform-center-y="2.3812498"
       d="m 16.473305,10.050717 c -1.593813,0 -7.4522024,0.143655 -8.2491094,1.523938 -0.796908,1.380283 2.0080904,6.525695 2.8049974,7.905978 0.796907,1.380282 3.850299,6.381522 5.444112,6.381522 1.593814,0 4.647205,-5.00124 5.444112,-6.381522 0.796907,-1.380283 3.601903,-6.525695 2.804996,-7.905978 -0.796906,-1.380283 -6.655294,-1.523938 -8.249108,-1.523938 z m 0,1.935799 c 1.085035,0 5.07316,0.09799 5.615677,1.037663 0.542518,0.939668 -1.366926,4.442433 -1.909443,5.382101 -0.542518,0.939667 -2.621199,4.344437 -3.706234,4.344437 -1.085035,0 -3.163716,-3.40477 -3.706233,-4.344437 -0.542518,-0.939668 -2.451962,-4.442433 -1.909445,-5.382101 0.542518,-0.939668 4.530643,-1.037663 5.615678,-1.037663 z" />
  </g>
  <inkscape:templateinfo>
    <inkscape:name>Default Icon</inkscape:name>
    <inkscape:author>Spiffily Software</inkscape:author>
    <inkscape:shortdesc>Basic non-symbolic linux icon template</inkscape:shortdesc>
    <inkscape:date>2021-03-27</inkscape:date>
    <inkscape:keywords>Linux, Icons, Spiffily</inkscape:keywords>
  </inkscape:templateinfo>
</svg>
